<svg width="107" height="21" viewBox="0 0 107 21" fill="none" xmlns="http://www.w3.org/2000/svg">
<path d="M0.474 16V5.55H2.454V16H0.474ZM1.464 3.46C1.09733 3.46 0.796667 3.34267 0.562 3.108C0.327333 2.85867 0.21 2.55067 0.21 2.184C0.21 1.832 0.327333 1.53867 0.562 1.304C0.796667 1.05467 1.09733 0.929999 1.464 0.929999C1.83067 0.929999 2.13133 1.05467 2.366 1.304C2.60067 1.53867 2.718 1.832 2.718 2.184C2.718 2.55067 2.60067 2.85867 2.366 3.108C2.13133 3.34267 1.83067 3.46 1.464 3.46ZM5.37192 16V5.55H7.35192V16H5.37192ZM12.4339 16V9.686C12.4339 8.90867 12.1919 8.3 11.7079 7.86C11.2386 7.40533 10.6446 7.178 9.92592 7.178C9.44192 7.178 9.00926 7.28067 8.62792 7.486C8.24659 7.69133 7.93859 7.97733 7.70392 8.344C7.46926 8.71067 7.35192 9.15067 7.35192 9.664L6.53792 9.268C6.53792 8.476 6.70659 7.78667 7.04392 7.2C7.39592 6.61333 7.87259 6.15867 8.47392 5.836C9.07526 5.49867 9.74992 5.33 10.4979 5.33C11.2313 5.33 11.8913 5.49133 12.4779 5.814C13.0793 6.13667 13.5486 6.59133 13.8859 7.178C14.2379 7.76467 14.4139 8.46133 14.4139 9.268V16H12.4339ZM19.4959 16V9.686C19.4959 8.90867 19.2539 8.3 18.7699 7.86C18.3006 7.40533 17.7139 7.178 17.0099 7.178C16.5259 7.178 16.0859 7.28067 15.6899 7.486C15.3086 7.69133 15.0006 7.97733 14.7659 8.344C14.5313 8.71067 14.4139 9.15067 14.4139 9.664L13.2919 9.268C13.3359 8.46133 13.5486 7.772 13.9299 7.2C14.3259 6.61333 14.8319 6.15867 15.4479 5.836C16.0639 5.49867 16.7386 5.33 17.4719 5.33C18.2346 5.33 18.9166 5.49133 19.5179 5.814C20.1193 6.13667 20.5959 6.59133 20.9479 7.178C21.3146 7.76467 21.4979 8.46867 21.4979 9.29V16H19.4959ZM29.6922 16.22C28.9002 16.22 28.1816 16.0587 27.5362 15.736C26.9056 15.3987 26.3996 14.9367 26.0182 14.35C25.6369 13.7633 25.4242 13.096 25.3802 12.348V9.202C25.4242 8.43933 25.6369 7.772 26.0182 7.2C26.4142 6.61333 26.9276 6.15867 27.5582 5.836C28.2036 5.49867 28.9149 5.33 29.6922 5.33C30.6456 5.33 31.5036 5.572 32.2662 6.056C33.0436 6.54 33.6522 7.19267 34.0922 8.014C34.5322 8.83533 34.7522 9.75933 34.7522 10.786C34.7522 11.8127 34.5322 12.7367 34.0922 13.558C33.6522 14.3793 33.0436 15.032 32.2662 15.516C31.5036 15.9853 30.6456 16.22 29.6922 16.22ZM24.1922 20.378V5.55H26.1722V8.3L25.7982 10.83L26.1722 13.382V20.378H24.1922ZM29.3622 14.35C30.0222 14.35 30.6016 14.196 31.1002 13.888C31.5989 13.58 31.9949 13.162 32.2882 12.634C32.5816 12.0913 32.7282 11.468 32.7282 10.764C32.7282 10.0747 32.5816 9.45867 32.2882 8.916C31.9949 8.37333 31.5989 7.95533 31.1002 7.662C30.6016 7.354 30.0296 7.2 29.3842 7.2C28.7242 7.2 28.1449 7.354 27.6462 7.662C27.1476 7.95533 26.7589 8.37333 26.4802 8.916C26.2016 9.45867 26.0622 10.082 26.0622 10.786C26.0622 11.4753 26.1942 12.0913 26.4582 12.634C26.7369 13.162 27.1256 13.58 27.6242 13.888C28.1376 14.196 28.7169 14.35 29.3622 14.35ZM36.9969 16V5.55H38.9769V16H36.9969ZM38.9769 10.038L38.2289 9.708C38.2289 8.37333 38.5369 7.31 39.1529 6.518C39.7689 5.726 40.6563 5.33 41.8149 5.33C42.3429 5.33 42.8196 5.42533 43.2449 5.616C43.6703 5.792 44.0663 6.09267 44.4329 6.518L43.1349 7.86C42.9149 7.62533 42.6729 7.45667 42.4089 7.354C42.1449 7.25133 41.8369 7.2 41.4849 7.2C40.7516 7.2 40.1503 7.43467 39.6809 7.904C39.2116 8.37333 38.9769 9.08467 38.9769 10.038ZM50.2573 16.22C49.2306 16.22 48.3066 15.978 47.4853 15.494C46.6639 15.01 46.0113 14.3573 45.5273 13.536C45.0433 12.7 44.8013 11.7687 44.8013 10.742C44.8013 9.73 45.0433 8.82067 45.5273 8.014C46.0113 7.19267 46.6639 6.54 47.4853 6.056C48.3066 5.572 49.2306 5.33 50.2573 5.33C51.2693 5.33 52.1859 5.572 53.0073 6.056C53.8433 6.52533 54.5033 7.17067 54.9873 7.992C55.4713 8.81333 55.7133 9.73 55.7133 10.742C55.7133 11.7687 55.4713 12.7 54.9873 13.536C54.5033 14.3573 53.8433 15.01 53.0073 15.494C52.1859 15.978 51.2693 16.22 50.2573 16.22ZM50.2573 14.306C50.9173 14.306 51.5039 14.152 52.0173 13.844C52.5306 13.536 52.9339 13.118 53.2273 12.59C53.5206 12.0473 53.6673 11.4313 53.6673 10.742C53.6673 10.0673 53.5133 9.466 53.2053 8.938C52.9119 8.41 52.5086 7.99933 51.9953 7.706C51.4966 7.398 50.9173 7.244 50.2573 7.244C49.5973 7.244 49.0106 7.398 48.4973 7.706C47.9839 7.99933 47.5806 8.41 47.2873 8.938C46.9939 9.466 46.8473 10.0673 46.8473 10.742C46.8473 11.4313 46.9939 12.0473 47.2873 12.59C47.5806 13.118 47.9839 13.536 48.4973 13.844C49.0106 14.152 49.5973 14.306 50.2573 14.306ZM57.9442 16V5.55H59.9242V16H57.9442ZM65.0062 16V9.686C65.0062 8.90867 64.7642 8.3 64.2802 7.86C63.8109 7.40533 63.2169 7.178 62.4982 7.178C62.0142 7.178 61.5815 7.28067 61.2002 7.486C60.8189 7.69133 60.5109 7.97733 60.2762 8.344C60.0415 8.71067 59.9242 9.15067 59.9242 9.664L59.1102 9.268C59.1102 8.476 59.2789 7.78667 59.6162 7.2C59.9682 6.61333 60.4449 6.15867 61.0462 5.836C61.6475 5.49867 62.3222 5.33 63.0702 5.33C63.8035 5.33 64.4635 5.49133 65.0502 5.814C65.6515 6.13667 66.1209 6.59133 66.4582 7.178C66.8102 7.76467 66.9862 8.46133 66.9862 9.268V16H65.0062ZM72.0682 16V9.686C72.0682 8.90867 71.8262 8.3 71.3422 7.86C70.8729 7.40533 70.2862 7.178 69.5822 7.178C69.0982 7.178 68.6582 7.28067 68.2622 7.486C67.8809 7.69133 67.5729 7.97733 67.3382 8.344C67.1035 8.71067 66.9862 9.15067 66.9862 9.664L65.8642 9.268C65.9082 8.46133 66.1209 7.772 66.5022 7.2C66.8982 6.61333 67.4042 6.15867 68.0202 5.836C68.6362 5.49867 69.3109 5.33 70.0442 5.33C70.8069 5.33 71.4889 5.49133 72.0902 5.814C72.6915 6.13667 73.1682 6.59133 73.5202 7.178C73.8869 7.76467 74.0702 8.46867 74.0702 9.29V16H72.0682ZM82.2645 16.22C81.4725 16.22 80.7538 16.0587 80.1085 15.736C79.4778 15.3987 78.9718 14.9367 78.5905 14.35C78.2092 13.7633 77.9965 13.096 77.9525 12.348V9.202C77.9965 8.43933 78.2092 7.772 78.5905 7.2C78.9865 6.61333 79.4998 6.15867 80.1305 5.836C80.7758 5.49867 81.4872 5.33 82.2645 5.33C83.2178 5.33 84.0758 5.572 84.8385 6.056C85.6158 6.54 86.2245 7.19267 86.6645 8.014C87.1045 8.83533 87.3245 9.75933 87.3245 10.786C87.3245 11.8127 87.1045 12.7367 86.6645 13.558C86.2245 14.3793 85.6158 15.032 84.8385 15.516C84.0758 15.9853 83.2178 16.22 82.2645 16.22ZM76.7645 20.378V5.55H78.7445V8.3L78.3705 10.83L78.7445 13.382V20.378H76.7645ZM81.9345 14.35C82.5945 14.35 83.1738 14.196 83.6725 13.888C84.1712 13.58 84.5672 13.162 84.8605 12.634C85.1538 12.0913 85.3005 11.468 85.3005 10.764C85.3005 10.0747 85.1538 9.45867 84.8605 8.916C84.5672 8.37333 84.1712 7.95533 83.6725 7.662C83.1738 7.354 82.6018 7.2 81.9565 7.2C81.2965 7.2 80.7172 7.354 80.2185 7.662C79.7198 7.95533 79.3312 8.37333 79.0525 8.916C78.7738 9.45867 78.6345 10.082 78.6345 10.786C78.6345 11.4753 78.7665 12.0913 79.0305 12.634C79.3092 13.162 79.6978 13.58 80.1965 13.888C80.7098 14.196 81.2892 14.35 81.9345 14.35ZM90.8529 16V1.172H92.8329V16H90.8529ZM88.2789 7.354V5.55H95.4069V7.354H88.2789ZM101.549 16.22C100.698 16.22 99.9279 16.0293 99.2385 15.648C98.5639 15.252 98.0359 14.7093 97.6545 14.02C97.2732 13.3307 97.0825 12.5313 97.0825 11.622V5.55H99.0625V11.534C99.0625 12.106 99.1579 12.6047 99.3485 13.03C99.5539 13.4407 99.8472 13.756 100.229 13.976C100.61 14.196 101.057 14.306 101.571 14.306C102.348 14.306 102.957 14.064 103.397 13.58C103.837 13.0813 104.057 12.3993 104.057 11.534V5.55H106.037V11.622C106.037 12.5313 105.846 13.3307 105.465 14.02C105.083 14.7093 104.555 15.252 103.881 15.648C103.221 16.0293 102.443 16.22 101.549 16.22Z" fill="white"/>
</svg>
